<?xml version="1.0" encoding="utf-8" ?>
<svg baseProfile="full" height="500px" version="1.1" width="900px" xmlns="http://www.w3.org/2000/svg" xmlns:ev="http://www.w3.org/2001/xml-events" xmlns:xlink="http://www.w3.org/1999/xlink"><defs><marker id="arrow" markerHeight="10" markerWidth="10" orient="auto" refX="10" refY="5"><path d="M 0 0 L 10 5 L 0 10 z" fill="#1e40af" /></marker></defs><rect fill="#dbeafe" height="80" rx="12" ry="12" stroke="#1e40af" stroke-width="2" width="180" x="50" y="210" /><text fill="#1e40af" font-family="Arial" font-size="13px" text-anchor="middle" x="140" y="245">Developer
Git Client</text><rect fill="#dbeafe" height="80" rx="12" ry="12" stroke="#1e40af" stroke-width="2" width="180" x="260" y="60" /><text fill="#1e40af" font-family="Arial" font-size="13px" text-anchor="middle" x="350" y="95">Git Repo
(Bitbucket / GitLab / GitHub)</text><rect fill="#dbeafe" height="80" rx="12" ry="12" stroke="#1e40af" stroke-width="2" width="180" x="260" y="210" /><text fill="#1e40af" font-family="Arial" font-size="13px" text-anchor="middle" x="350" y="245">Pre‑receive
Hook</text><rect fill="#dbeafe" height="80" rx="12" ry="12" stroke="#1e40af" stroke-width="2" width="180" x="480" y="210" /><text fill="#1e40af" font-family="Arial" font-size="13px" text-anchor="middle" x="570" y="245">COMMUS API
Policy Engine</text><rect fill="#dbeafe" height="80" rx="12" ry="12" stroke="#1e40af" stroke-width="2" width="180" x="700" y="60" /><text fill="#1e40af" font-family="Arial" font-size="13px" text-anchor="middle" x="790" y="95">Slack / Teams
Notifications</text><line marker-end="url(#arrow)" stroke="#1e40af" stroke-width="2" x1="230" x2="260" y1="250" y2="250" /><line marker-end="url(#arrow)" stroke="#1e40af" stroke-width="2" x1="440" x2="480" y1="250" y2="250" /><line marker-end="url(#arrow)" stroke="#1e40af" stroke-width="2" x1="660" x2="660" y1="250" y2="140" /><line marker-end="url(#arrow)" stroke="#1e40af" stroke-width="2" x1="430" x2="700" y1="100" y2="100" /><line marker-end="url(#arrow)" stroke="#1e40af" stroke-width="2" x1="345" x2="345" y1="100" y2="210" /><line marker-end="url(#arrow)" stroke="#1e40af" stroke-width="2" x1="480" x2="345" y1="285" y2="285" /><text fill="#1e40af" font-family="Arial" font-size="12px" x="400" y="295">Allow / Deny</text></svg>